<svg xmlns="http://www.w3.org/2000/svg" xmlns:xlink="http://www.w3.org/1999/xlink" version="1.1" x="0px" y="0px" viewBox="0 0 100 125" enable-background="new 0 0 100 100" xml:space="preserve"><g><g><path d="M44.9,32.8c-1.4,0-2.6,1.2-2.6,2.6h5.2C47.5,34,46.3,32.8,44.9,32.8z"/><path d="M55.4,32.8c-1.4,0-2.6,1.2-2.6,2.6H58C58,34,56.8,32.8,55.4,32.8z"/><path d="M58.1,50.4v-2.3c1.8-1.8,3-4.2,3.3-6.8c2.6-0.4,4.5-2.7,4.5-5.4c0-2.7-1.9-4.9-4.5-5.4v-4.5c0-6.2-5-11.3-11.3-11.3    s-11.3,5-11.3,11.3v4.5c-2.5,0.5-4.5,2.7-4.5,5.4c0,2.7,2,4.9,4.5,5.4c0.3,2.7,1.5,5,3.3,6.8v2.3c-5.7,3-9.4,8.9-9.4,15.3v19.4    h34.6V65.7C67.4,59.3,63.8,53.3,58.1,50.4z M61.4,32.6c1.4,0.4,2.5,1.8,2.5,3.3s-1,2.9-2.5,3.3V32.6z M38.9,39.2    c-1.4-0.4-2.5-1.8-2.5-3.3s1-2.9,2.5-3.3V39.2z M50.1,16.8c5.1,0,9.3,4.2,9.3,9.3v13.2c-0.5,0.1-0.8,0.5-0.8,1    c0,0.5,0.3,0.8,0.7,0.9c-0.2,1.5-0.7,2.9-1.5,4.1c0,0,0,0-0.1,0c-0.6,0-1,0.4-1,1c0,0.1,0,0.2,0.1,0.3c-1.1,1.1-2.4,2-3.9,2.5    c0.2-0.2,0.3-0.4,0.3-0.7c0-0.6-0.4-1-1-1s-1,0.4-1,1c0,0.5,0.3,0.8,0.8,1c-0.6,0.1-1.2,0.2-1.8,0.2c-0.6,0-1.1-0.1-1.7-0.2    c0.5-0.1,0.9-0.5,0.9-1c0-0.6-0.4-1-1-1s-1,0.4-1,1c0,0.4,0.2,0.7,0.5,0.8c-1.3-0.3-2.6-1-3.6-1.8c0,0,0,0,0,0    c-0.2-0.2-0.4-0.3-0.5-0.5c0.1-0.2,0.2-0.3,0.2-0.5c0-0.6-0.4-1-1-1c-0.1,0-0.3,0-0.4,0.1c-0.8-1.2-1.4-2.6-1.5-4.1c0,0,0,0,0,0    c0.6,0,1-0.4,1-1c0-0.6-0.4-1-1-1c0,0-0.1,0-0.1,0V26.1C40.9,21,45,16.8,50.1,16.8z M65.4,83.2H34.8V65.7c0-4.1,1.7-7.9,4.4-10.8    c0.5,4,3.2,7.4,6.8,8.9c0-0.1,0-0.1,0-0.2c0-0.7,0.2-1.3,0.4-1.8c-3.1-1.4-5.3-4.5-5.3-8.2v-0.4c0.3-0.2,0.7-0.5,1-0.7v1    c0,3.3,2,6.1,4.9,7.3c0.7-0.8,1.6-1.3,2.7-1.4c-3.1-0.2-5.6-2.8-5.6-5.9v-4c1.7,1.1,3.8,1.7,5.9,1.7c2.2,0,4.2-0.6,5.9-1.7v4    c0,3.1-2.4,5.7-5.5,5.9c1.1,0.1,2,0.6,2.7,1.4c2.8-1.2,4.8-4,4.8-7.3v-1c0.3,0.2,0.7,0.4,1,0.7v0.4c0,3.6-2.1,6.7-5.2,8.1    c0.3,0.6,0.5,1.2,0.5,1.9c0,0,0,0.1,0,0.1c3.6-1.5,6.2-4.8,6.7-8.8c2.8,2.8,4.4,6.7,4.4,10.8V83.2z"/><circle cx="50.1" cy="62" r="1"/><circle cx="50.1" cy="66" r="1"/><circle cx="42.9" cy="42.3" r="1"/><circle cx="57.8" cy="42.3" r="1"/><circle cx="48.3" cy="44.3" r="1"/><circle cx="44.7" cy="44.3" r="1"/><circle cx="42.9" cy="38.3" r="1"/><circle cx="52.2" cy="44.3" r="1"/><circle cx="55.9" cy="44.3" r="1"/><circle cx="57.9" cy="38.3" r="1"/><circle cx="46.6" cy="46.3" r="1"/><circle cx="50.4" cy="46.3" r="1"/><circle cx="54.1" cy="46.3" r="1"/></g></g></svg>
